<?xml version="1.0" standalone="no"?>
<!DOCTYPE svg PUBLIC "-//W3C//DTD SVG 20010904//EN"
 "http://www.w3.org/TR/2001/REC-SVG-20010904/DTD/svg10.dtd">
<svg version="1.0" xmlns="http://www.w3.org/2000/svg"
 width="1536.000000pt" height="1116.000000pt" viewBox="0 0 1536.000000 1116.000000"
 preserveAspectRatio="xMidYMid meet">

<g transform="translate(0.000000,1116.000000) scale(0.100000,-0.100000)"
fill="#000000" stroke="none">
<path d="M2810 9590 l0 -810 -255 0 -255 0 0 280 0 280 -25 0 -25 0 0 -280 0
-280 -815 0 -815 0 0 -25 0 -25 815 0 815 0 0 -1095 0 -1095 -255 0 -255 0 0
840 0 840 -25 0 -25 0 0 -1680 0 -1680 -535 0 -535 0 0 -25 0 -25 535 0 535 0
0 -255 0 -255 -535 0 -535 0 0 -25 0 -25 535 0 535 0 0 -1120 0 -1120 25 0 25
0 0 1120 0 1120 255 0 255 0 0 -1120 0 -1120 25 0 25 0 0 1120 0 1120 255 0
255 0 0 -560 0 -560 25 0 25 0 0 560 0 560 535 0 535 0 0 -255 0 -255 -255 0
-255 0 0 -25 0 -25 255 0 255 0 0 -815 0 -815 -560 0 -560 0 0 -25 0 -25 560
0 560 0 0 -560 0 -560 25 0 25 0 0 560 0 560 255 0 255 0 0 -560 0 -560 25 0
25 0 0 560 0 560 255 0 255 0 0 -560 0 -560 25 0 25 0 0 560 0 560 535 0 535
0 0 -280 0 -280 25 0 25 0 0 280 0 280 255 0 255 0 0 -815 0 -815 25 0 25 0 0
815 0 815 1095 0 1095 0 0 -255 0 -255 -560 0 -560 0 0 -25 0 -25 560 0 560 0
0 -535 0 -535 25 0 25 0 0 535 0 535 255 0 255 0 0 -535 0 -535 25 0 25 0 0
535 0 535 840 0 840 0 0 25 0 25 -840 0 -840 0 0 255 0 255 1095 0 1095 0 0
25 0 25 -1095 0 -1095 0 0 535 0 535 2465 0 2465 0 0 25 0 25 -1905 0 -1905 0
0 815 0 815 1510 0 1510 0 0 25 0 25 -1230 0 -1230 0 0 1095 0 1095 1790 0
1790 0 0 25 0 25 -1790 0 -1790 0 0 255 0 255 520 0 520 0 0 25 0 25 -520 0
-520 0 0 255 0 255 865 0 865 0 0 25 0 25 -865 0 -865 0 0 280 0 280 -25 0
-25 0 0 -280 0 -280 -535 0 -535 0 0 535 0 535 1080 0 1080 0 0 25 0 25 -1080
0 -1080 0 0 530 0 530 -25 0 -25 0 0 -530 0 -530 -535 0 -535 0 0 530 0 530
-25 0 -25 0 0 -530 0 -530 -255 0 -255 0 0 530 0 530 -25 0 -25 0 0 -530 0
-530 -535 0 -535 0 0 530 0 530 -25 0 -25 0 0 -530 0 -530 -1095 0 -1095 0 0
530 0 530 -25 0 -25 0 0 -530 0 -530 -560 0 -560 0 0 -25 0 -25 560 0 560 0 0
-255 0 -255 -1095 0 -1095 0 0 810 0 810 -25 0 -25 0 0 -810z m4480 -555 l0
-255 -1095 0 -1095 0 0 255 0 255 1095 0 1095 0 0 -255z m1120 -280 l0 -535
-535 0 -535 0 0 535 0 535 535 0 535 0 0 -535z m560 280 l0 -255 -255 0 -255
0 0 255 0 255 255 0 255 0 0 -255z m1120 -280 l0 -535 -535 0 -535 0 0 535 0
535 535 0 535 0 0 -535z m-7280 -560 l0 -535 -255 0 -255 0 0 535 0 535 255 0
255 0 0 -535z m1120 280 l0 -255 -535 0 -535 0 0 255 0 255 535 0 535 0 0
-255z m5040 -560 l0 -815 -255 0 -255 0 0 815 0 815 255 0 255 0 0 -815z
m-5040 -280 l0 -535 -535 0 -535 0 0 535 0 535 535 0 535 0 0 -535z m2240 280
l0 -255 -815 0 -815 0 0 255 0 255 815 0 815 0 0 -255z m1680 0 l0 -255 -815
0 -815 0 0 255 0 255 815 0 815 0 0 -255z m560 -280 l0 -535 -255 0 -255 0 0
535 0 535 255 0 255 0 0 -535z m2800 280 l0 -255 -535 0 -535 0 0 255 0 255
535 0 535 0 0 -255z m-6720 -560 l0 -255 -255 0 -255 0 0 255 0 255 255 0 255
0 0 -255z m1120 -280 l0 -535 -535 0 -535 0 0 535 0 535 535 0 535 0 0 -535z
m560 -280 l0 -815 -255 0 -255 0 0 815 0 815 255 0 255 0 0 -815z m1680 560
l0 -255 -815 0 -815 0 0 255 0 255 815 0 815 0 0 -255z m2800 0 l0 -255 -535
0 -535 0 0 255 0 255 535 0 535 0 0 -255z m560 0 l0 -255 -255 0 -255 0 0 255
0 255 255 0 255 0 0 -255z m-4480 -560 l0 -255 -255 0 -255 0 0 255 0 255 255
0 255 0 0 -255z m560 0 l0 -255 -255 0 -255 0 0 255 0 255 255 0 255 0 0 -255z
m-3360 -1120 l0 -815 -815 0 -815 0 0 815 0 815 815 0 815 0 0 -815z m1680
560 l0 -255 -815 0 -815 0 0 255 0 255 815 0 815 0 0 -255z m3360 0 l0 -255
-815 0 -815 0 0 255 0 255 815 0 815 0 0 -255z m-4480 -840 l0 -535 -255 0
-255 0 0 535 0 535 255 0 255 0 0 -535z m2230 280 l0 -255 -530 0 -530 0 0
255 0 255 530 0 530 0 0 -255z m570 0 l0 -255 -255 0 -255 0 0 255 0 255 255
0 255 0 0 -255z m2240 0 l0 -255 -535 0 -535 0 0 255 0 255 535 0 535 0 0
-255z m-4480 -560 l0 -255 -255 0 -255 0 0 255 0 255 255 0 255 0 0 -255z
m1120 0 l0 -255 -535 0 -535 0 0 255 0 255 535 0 535 0 0 -255z m560 0 l0
-255 -255 0 -255 0 0 255 0 255 255 0 255 0 0 -255z m1120 0 l0 -255 -535 0
-535 0 0 255 0 255 535 0 535 0 0 -255z m560 0 l0 -255 -255 0 -255 0 0 255 0
255 255 0 255 0 0 -255z m1680 0 l0 -255 -815 0 -815 0 0 255 0 255 815 0 815
0 0 -255z m-7840 -560 l0 -255 -255 0 -255 0 0 255 0 255 255 0 255 0 0 -255z
m560 0 l0 -255 -255 0 -255 0 0 255 0 255 255 0 255 0 0 -255z m2800 0 l0
-255 -535 0 -535 0 0 255 0 255 535 0 535 0 0 -255z m560 0 l0 -255 -255 0
-255 0 0 255 0 255 255 0 255 0 0 -255z m1680 0 l0 -255 -255 0 -255 0 0 255
0 255 255 0 255 0 0 -255z m-2240 -560 l0 -255 -255 0 -255 0 0 255 0 255 255
0 255 0 0 -255z m1120 0 l0 -255 -535 0 -535 0 0 255 0 255 535 0 535 0 0
-255z m1120 -280 l0 -535 -535 0 -535 0 0 535 0 535 535 0 535 0 0 -535z
m-3360 -840 l0 -815 -255 0 -255 0 0 815 0 815 255 0 255 0 0 -815z m560 0 l0
-815 -255 0 -255 0 0 815 0 815 255 0 255 0 0 -815z m1120 560 l0 -255 -535 0
-535 0 0 255 0 255 535 0 535 0 0 -255z m560 0 l0 -255 -255 0 -255 0 0 255 0
255 255 0 255 0 0 -255z m-560 -840 l0 -535 -535 0 -535 0 0 535 0 535 535 0
535 0 0 -535z m560 0 l0 -535 -255 0 -255 0 0 535 0 535 255 0 255 0 0 -535z
m1120 0 l0 -535 -535 0 -535 0 0 535 0 535 535 0 535 0 0 -535z m1120 0 l0
-535 -535 0 -535 0 0 535 0 535 535 0 535 0 0 -535z m560 0 l0 -535 -255 0
-255 0 0 535 0 535 255 0 255 0 0 -535z m0 -840 l0 -255 -255 0 -255 0 0 255
0 255 255 0 255 0 0 -255z"/>
<path d="M10943 4703 l-63 -4 0 -319 0 -320 84 0 85 0 3 158 c2 128 6 164 21
194 19 37 47 55 67 43 6 -4 10 -81 10 -201 l0 -194 85 0 85 0 0 209 c0 203 -1
211 -22 236 -45 51 -145 46 -209 -12 l-39 -35 0 126 c0 125 0 126 -22 124 -13
-1 -51 -3 -85 -5z"/>
<path d="M12230 4539 c-14 -6 -40 -24 -57 -42 l-33 -31 0 38 0 39 -52 -7 c-29
-3 -68 -6 -85 -6 l-33 0 0 -235 0 -235 84 0 84 0 4 184 c3 164 5 186 22 205
23 25 51 27 60 5 3 -9 6 -101 6 -205 l0 -189 84 0 85 0 3 184 c3 164 5 186 22
205 23 25 51 27 60 5 3 -9 6 -101 6 -205 l0 -189 86 0 85 0 -3 215 -3 215 -26
26 c-40 40 -105 44 -162 11 -25 -15 -47 -33 -51 -42 -8 -21 -23 -19 -31 6 -15
46 -96 71 -155 48z"/>
<path d="M12857 4537 c-59 -18 -87 -51 -87 -102 0 -36 4 -44 23 -49 48 -13 52
-9 49 43 -3 42 0 51 19 65 31 21 92 21 111 -1 44 -51 24 -100 -54 -132 -116
-48 -130 -56 -153 -82 -48 -58 -39 -161 18 -203 41 -31 143 -30 186 1 l30 23
36 -21 c32 -19 46 -21 112 -16 41 3 77 8 80 11 13 12 -10 46 -32 46 -12 0 -26
7 -29 16 -3 9 -6 90 -6 180 0 164 0 165 -25 188 -47 43 -190 60 -278 33z m128
-384 c-6 -25 -50 -42 -67 -25 -13 13 -22 85 -14 118 4 15 24 43 44 61 l37 34
3 -83 c2 -46 0 -93 -3 -105z"/>
<path d="M11467 4533 l-48 -4 3 -209 3 -210 27 -26 c52 -53 150 -42 221 24
l27 26 0 -37 0 -37 85 0 85 0 0 241 0 242 -61 -7 c-34 -3 -73 -6 -85 -6 l-24
0 0 -135 c0 -200 -22 -272 -82 -263 l-23 3 -3 203 -2 202 -38 -2 c-20 -1 -59
-3 -85 -5z"/>
<path d="M13323 4533 l-53 -4 0 -235 0 -234 84 0 85 0 3 169 c3 154 5 172 24
198 29 38 61 42 74 8 5 -14 10 -105 10 -201 l0 -174 80 0 80 0 0 206 c0 122
-4 213 -10 225 -14 25 -62 49 -100 49 -41 0 -99 -25 -132 -57 l-28 -27 0 42
c0 47 12 44 -117 35z"/>
<path d="M11552 3964 c-50 -35 -15 -104 53 -104 44 0 75 25 75 60 0 35 -31 60
-75 60 -17 0 -41 -7 -53 -16z"/>
<path d="M12282 3964 c-50 -35 -15 -104 53 -104 44 0 75 25 75 60 0 35 -31 60
-75 60 -17 0 -41 -7 -53 -16z"/>
<path d="M11578 3793 l-58 -4 0 -234 0 -235 85 0 85 0 0 240 0 240 -27 -2
c-16 -1 -54 -3 -85 -5z"/>
<path d="M11883 3784 c-23 -9 -56 -31 -73 -50 -25 -29 -30 -43 -30 -84 0 -67
35 -105 150 -164 96 -50 114 -73 84 -107 -32 -35 -111 -20 -151 29 -7 9 -13
29 -13 45 0 29 -1 29 -42 23 -23 -4 -44 -9 -46 -10 -9 -10 21 -85 42 -105 47
-44 173 -64 258 -41 54 15 96 55 109 103 23 87 -24 151 -155 211 -39 18 -79
43 -90 54 -18 20 -18 23 -2 47 34 52 146 18 146 -45 0 -25 21 -34 55 -26 29 7
31 25 9 67 -31 62 -154 87 -251 53z"/>
<path d="M12308 3793 l-58 -4 0 -234 0 -235 85 0 85 0 0 240 0 240 -27 -2
c-16 -1 -54 -3 -85 -5z"/>
<path d="M12638 3786 c-59 -21 -86 -43 -110 -89 -20 -36 -23 -57 -23 -142 0
-88 3 -105 25 -145 32 -57 90 -90 169 -97 85 -8 156 12 200 56 44 44 61 96 61
186 0 90 -17 142 -61 186 -55 55 -174 76 -261 45z m132 -61 c11 -22 15 -65 15
-170 0 -154 -11 -197 -53 -203 -40 -6 -56 52 -56 203 0 151 16 209 56 203 13
-2 29 -16 38 -33z"/>
<path d="M13093 3793 l-53 -4 0 -235 0 -234 84 0 85 0 3 169 c3 154 5 172 24
198 29 38 61 42 74 8 5 -14 10 -105 10 -201 l0 -174 80 0 80 0 0 206 c0 122
-4 213 -10 225 -14 25 -62 49 -100 49 -41 0 -99 -25 -132 -57 l-28 -27 0 42
c0 47 12 44 -117 35z"/>
<path d="M11050 3778 c0 -7 35 -113 78 -235 l77 -224 59 3 58 3 79 230 c43
127 79 231 79 233 0 2 -12 2 -27 0 -25 -3 -30 -13 -79 -158 -29 -85 -53 -153
-54 -150 0 3 -23 73 -49 155 l-48 150 -87 3 c-64 2 -86 0 -86 -10z"/>
<path d="M13822 2974 c-50 -35 -15 -104 53 -104 44 0 75 25 75 60 0 35 -31 60
-75 60 -17 0 -41 -7 -53 -16z"/>
<path d="M11593 2973 l-63 -4 0 -319 0 -320 85 0 85 0 0 325 0 325 -22 -2
c-13 -1 -51 -3 -85 -5z"/>
<path d="M10015 2907 c-110 -37 -209 -125 -239 -213 -23 -67 -21 -187 3 -241
30 -65 93 -127 164 -159 55 -26 73 -29 157 -29 95 1 199 26 207 50 8 29 -13
32 -87 13 -175 -45 -313 16 -361 159 -17 54 -7 189 18 238 43 82 120 134 213
142 170 16 294 -119 260 -282 -14 -66 -59 -125 -95 -125 -13 0 -26 3 -29 8 -2
4 6 66 19 137 13 72 22 131 20 133 -8 9 -97 -12 -102 -24 -4 -11 -10 -10 -30
6 -74 58 -170 -30 -181 -165 -3 -39 0 -76 7 -93 20 -49 85 -67 129 -36 20 14
24 14 44 0 53 -38 163 -12 229 54 125 125 70 333 -110 413 -57 25 -179 32
-236 14z m130 -238 c10 -29 -4 -117 -25 -166 -14 -31 -25 -43 -39 -43 -19 0
-21 6 -21 53 0 57 20 138 40 162 18 21 38 18 45 -6z"/>
<path d="M11199 2806 c-98 -35 -150 -108 -157 -222 -6 -97 11 -157 58 -204 45
-45 115 -65 201 -57 102 9 159 65 159 155 0 35 -4 41 -29 50 l-29 10 -4 -65
c-4 -57 -8 -69 -32 -89 -29 -25 -74 -31 -106 -14 -30 16 -44 77 -45 195 0 154
26 215 92 215 41 0 63 -34 63 -95 0 -30 2 -55 5 -55 2 0 21 8 41 17 33 16 35
20 30 53 -16 98 -131 148 -247 106z"/>
<path d="M13377 2807 c-59 -18 -87 -51 -87 -102 0 -36 4 -44 23 -49 48 -13 52
-9 49 43 -3 42 0 51 19 65 31 21 92 21 111 -1 44 -51 24 -100 -54 -132 -116
-48 -130 -56 -153 -82 -48 -58 -39 -161 18 -203 41 -31 143 -30 186 1 l30 23
36 -21 c32 -19 46 -21 112 -16 41 3 77 8 80 11 13 12 -10 46 -32 46 -12 0 -26
7 -29 16 -3 9 -6 90 -6 180 0 164 0 165 -25 188 -47 43 -190 60 -278 33z m128
-384 c-6 -25 -50 -42 -67 -25 -13 13 -22 85 -14 118 4 15 24 43 44 61 l37 34
3 -83 c2 -46 0 -93 -3 -105z"/>
<path d="M10557 2803 l-48 -4 3 -209 3 -210 27 -26 c52 -53 150 -42 221 24
l27 26 0 -37 0 -37 85 0 85 0 0 241 0 242 -61 -7 c-34 -3 -73 -6 -85 -6 l-24
0 0 -135 c0 -200 -22 -272 -82 -263 l-23 3 -3 203 -2 202 -38 -2 c-20 -1 -59
-3 -85 -5z"/>
<path d="M11908 2796 c-59 -21 -86 -43 -110 -89 -20 -36 -23 -57 -23 -142 0
-88 3 -105 25 -145 32 -57 90 -90 169 -97 85 -8 156 12 200 56 44 44 61 96 61
186 0 90 -17 142 -61 186 -55 55 -174 76 -261 45z m132 -61 c11 -22 15 -65 15
-170 0 -154 -11 -197 -53 -203 -40 -6 -56 52 -56 203 0 151 16 209 56 203 13
-2 29 -16 38 -33z"/>
<path d="M12357 2803 l-48 -4 3 -209 3 -210 27 -26 c52 -53 150 -42 221 24
l27 26 0 -37 0 -37 85 0 85 0 0 241 0 242 -61 -7 c-34 -3 -73 -6 -85 -6 l-24
0 0 -135 c0 -200 -22 -272 -82 -263 l-23 3 -3 203 -2 202 -38 -2 c-20 -1 -59
-3 -85 -5z"/>
<path d="M13848 2803 l-58 -4 0 -234 0 -235 85 0 85 0 0 240 0 240 -27 -2
c-16 -1 -54 -3 -85 -5z"/>
<path d="M14113 2803 l-53 -4 0 -235 0 -234 84 0 85 0 3 169 c3 154 5 172 24
198 29 38 61 42 74 8 5 -14 10 -105 10 -201 l0 -174 86 0 86 0 -4 203 c-3 218
-7 236 -58 262 -56 29 -137 11 -192 -42 l-28 -27 0 42 c0 47 12 44 -117 35z"/>
<path d="M12857 2643 c30 -87 67 -193 81 -236 l27 -78 58 3 59 3 79 230 c43
127 79 231 79 233 0 2 -12 2 -27 0 -25 -3 -30 -13 -79 -158 -29 -85 -53 -153
-54 -150 0 3 -23 73 -49 155 l-48 150 -91 3 -91 3 56 -158z"/>
</g>
</svg>
